<?xml version="1.0" encoding="UTF-8" standalone="no"?>
<!-- Created with Inkscape (http://www.inkscape.org/) -->

<svg
   xmlns:dc="http://purl.org/dc/elements/1.1/"
   xmlns:cc="http://creativecommons.org/ns#"
   xmlns:rdf="http://www.w3.org/1999/02/22-rdf-syntax-ns#"
   xmlns:svg="http://www.w3.org/2000/svg"
   xmlns="http://www.w3.org/2000/svg"
   xmlns:sodipodi="http://sodipodi.sourceforge.net/DTD/sodipodi-0.dtd"
   xmlns:inkscape="http://www.inkscape.org/namespaces/inkscape"
   width="197.83778mm"
   height="260.49112mm"
   viewBox="0 0 701.00002 923.00003"
   id="svg4133"
   version="1.1"
   inkscape:version="0.91 r13725"
   sodipodi:docname="spruce.svg">
  <defs
     id="defs4135" />
  <sodipodi:namedview
     id="base"
     pagecolor="#ffffff"
     bordercolor="#666666"
     borderopacity="1.0"
     inkscape:pageopacity="0.0"
     inkscape:pageshadow="2"
     inkscape:zoom="0.35"
     inkscape:cx="-104.50004"
     inkscape:cy="396.78569"
     inkscape:document-units="px"
     inkscape:current-layer="layer1"
     showgrid="false"
     fit-margin-top="0"
     fit-margin-left="0"
     fit-margin-right="0"
     fit-margin-bottom="0"
     inkscape:window-width="2560"
     inkscape:window-height="1376"
     inkscape:window-x="0"
     inkscape:window-y="27"
     inkscape:window-maximized="1" />
  <metadata
     id="metadata4138">
    <rdf:RDF>
      <cc:Work
         rdf:about="">
        <dc:format>image/svg+xml</dc:format>
        <dc:type
           rdf:resource="http://purl.org/dc/dcmitype/StillImage" />
        <dc:title></dc:title>
      </cc:Work>
    </rdf:RDF>
  </metadata>
  <g
     inkscape:label="Layer 1"
     inkscape:groupmode="layer"
     id="layer1"
     transform="translate(-22.357178,-6.1478882)">
    <path
       style="fill:#ffffff;fill-opacity:1;stroke:#000000;stroke-opacity:0.66298343"
       d="m 722.85718,356.64789 c 0,193.29966 -290.98605,572 -350,572 -61.87109,0 -350.000002,-378.70034 -350.000002,-572 C 22.857177,163.34823 179.55752,6.6478871 372.85718,6.6478882 c 193.29966,0 350,156.7003418 350,350.0000018 z"
       id="path4681"
       inkscape:connector-curvature="0"
       sodipodi:nodetypes="sssss" />
    <path
       sodipodi:nodetypes="cccccccccccccccccc"
       inkscape:connector-curvature="0"
       id="polygon3390-3"
       d="m 441.3635,279.59837 36.1188,6.68103 -82.5543,-142.98863 -82.55305,142.98863 36.11991,-6.68103 -77.95209,141.70142 57.03933,-6.68104 -103.64401,186.20268 139.57017,-6.68103 0,139.15037 0.54784,0 61.7417,0 0.5512,0 0,-139.15037 139.57006,6.68103 -103.64396,-186.20268 57.0393,6.68104 z"
       style="fill:#000000;fill-opacity:0.27058824" />
    <path
       sodipodi:nodetypes="cccccccccccccccccc"
       inkscape:connector-curvature="0"
       id="polygon3390"
       d="m 417.65063,257.52738 36.11879,6.68103 -82.55421,-142.98863 -82.5531,142.98863 36.11991,-6.68103 -77.95209,141.70142 57.03933,-6.68104 -103.64401,186.20268 139.57017,-6.68103 0,139.15037 0.54784,0 61.74167,0 0.55119,0 0,-139.15037 139.57017,6.68103 -103.64402,-186.20268 57.03934,6.68104 z"
       style="fill:#0d5957;fill-opacity:1" />
  </g>
</svg>
