<?xml version="1.0" encoding="UTF-8" standalone="no"?>
<svg
   xmlns:dc="http://purl.org/dc/elements/1.1/"
   xmlns:cc="http://creativecommons.org/ns#"
   xmlns:rdf="http://www.w3.org/1999/02/22-rdf-syntax-ns#"
   xmlns:svg="http://www.w3.org/2000/svg"
   xmlns="http://www.w3.org/2000/svg"
   xmlns:sodipodi="http://sodipodi.sourceforge.net/DTD/sodipodi-0.dtd"
   xmlns:inkscape="http://www.inkscape.org/namespaces/inkscape"
   version="1.1"
   x="0px"
   y="0px"
   viewBox="0 0 275.495 481.89099"
   enable-background="new 0 0 792 612"
   xml:space="preserve"
   id="svg4358"
   inkscape:version="0.91 r13725"
   sodipodi:docname="aspen.svg"
   width="275.495"
   height="481.89099"><metadata
     id="metadata4370"><rdf:RDF><cc:Work
         rdf:about=""><dc:format>image/svg+xml</dc:format><dc:type
           rdf:resource="http://purl.org/dc/dcmitype/StillImage" /><dc:title></dc:title></cc:Work></rdf:RDF></metadata><defs
     id="defs4368" /><sodipodi:namedview
     pagecolor="#ffffff"
     bordercolor="#666666"
     borderopacity="1"
     objecttolerance="10"
     gridtolerance="10"
     guidetolerance="10"
     inkscape:pageopacity="0"
     inkscape:pageshadow="2"
     inkscape:window-width="2560"
     inkscape:window-height="1376"
     id="namedview4366"
     showgrid="false"
     fit-margin-top="0"
     fit-margin-left="0"
     fit-margin-right="0"
     fit-margin-bottom="0"
     inkscape:zoom="1.2339869"
     inkscape:cx="-39.258234"
     inkscape:cy="233.09715"
     inkscape:window-x="0"
     inkscape:window-y="27"
     inkscape:window-maximized="1"
     inkscape:current-layer="svg4358" /><path
     d="m 275.495,265.954 c 0,-36.137 -18.327,-68.524 -47.284,-90.541 3.099,-8.083 4.8,-16.709 4.8,-25.684 0,-27.238 -15.457,-51.359 -39.222,-66.262 2.893,-7.068 4.517,-14.796 4.517,-22.911 C 198.306,27.11 171.195,0 137.746,0 104.3,0 77.189,27.11 77.189,60.556 c 0,8.114 1.621,15.842 4.517,22.911 -23.765,14.902 -39.221,39.023 -39.221,66.262 0,8.975 1.7,17.601 4.799,25.684 C 18.324,197.43 0,229.817 0,265.954 0,324.643 48.275,373.469 112.086,383.959 l 0,97.932 5.544,0 40.237,0 5.545,0 0,-97.938 C 227.22,373.465 275.495,324.64 275.495,265.954 Z"
     id="path4360"
     style="fill:#feda05;fill-opacity:1"
     inkscape:connector-curvature="0" /></svg>