<?xml version="1.0" encoding="UTF-8" standalone="no"?>
<!-- Created with Inkscape (http://www.inkscape.org/) -->

<svg
   xmlns:dc="http://purl.org/dc/elements/1.1/"
   xmlns:cc="http://creativecommons.org/ns#"
   xmlns:rdf="http://www.w3.org/1999/02/22-rdf-syntax-ns#"
   xmlns:svg="http://www.w3.org/2000/svg"
   xmlns="http://www.w3.org/2000/svg"
   xmlns:sodipodi="http://sodipodi.sourceforge.net/DTD/sodipodi-0.dtd"
   xmlns:inkscape="http://www.inkscape.org/namespaces/inkscape"
   width="197.83778mm"
   height="260.49112mm"
   viewBox="0 0 701.00002 923.00003"
   id="svg4133"
   version="1.1"
   inkscape:version="0.91 r13725"
   sodipodi:docname="ash.svg">
  <defs
     id="defs4135" />
  <sodipodi:namedview
     id="base"
     pagecolor="#ffffff"
     bordercolor="#666666"
     borderopacity="1.0"
     inkscape:pageopacity="0.0"
     inkscape:pageshadow="2"
     inkscape:zoom="0.98994949"
     inkscape:cx="20.281407"
     inkscape:cy="406.8157"
     inkscape:document-units="px"
     inkscape:current-layer="layer1"
     showgrid="false"
     fit-margin-top="0"
     fit-margin-left="0"
     fit-margin-right="0"
     fit-margin-bottom="0"
     inkscape:window-width="2560"
     inkscape:window-height="1376"
     inkscape:window-x="0"
     inkscape:window-y="27"
     inkscape:window-maximized="1" />
  <metadata
     id="metadata4138">
    <rdf:RDF>
      <cc:Work
         rdf:about="">
        <dc:format>image/svg+xml</dc:format>
        <dc:type
           rdf:resource="http://purl.org/dc/dcmitype/StillImage" />
        <dc:title></dc:title>
      </cc:Work>
    </rdf:RDF>
  </metadata>
  <g
     inkscape:label="Layer 1"
     inkscape:groupmode="layer"
     id="layer1"
     transform="translate(-22.357178,-6.1478882)">
    <path
       style="fill:#ffffff;fill-opacity:1;stroke:#000000;stroke-opacity:0.66298343"
       d="m 722.85718,356.64789 c 0,193.29966 -290.98605,572 -350,572 -61.87109,0 -350.000002,-378.70034 -350.000002,-572 C 22.857177,163.34823 179.55752,6.6478871 372.85718,6.6478882 c 193.29966,0 350,156.7003418 350,350.0000018 z"
       id="path4681"
       inkscape:connector-curvature="0"
       sodipodi:nodetypes="sssss" />
    <path
       inkscape:connector-curvature="0"
       style="fill:#000000;fill-opacity:0.27058824"
       id="path4360-5"
       d="m 563.00746,463.48119 c 0,-44.24409 -22.4386,-83.89689 -57.8919,-110.85326 3.7942,-9.89637 5.8769,-20.45755 5.8769,-31.44603 0,-33.34866 -18.9247,-62.88105 -48.0212,-81.12743 3.542,-8.65367 5.5303,-18.1154 5.5303,-28.05094 0,-40.94939 -33.1931,-74.14132 -74.1462,-74.14132 -40.9494,0 -74.1426,33.19193 -74.1426,74.14132 0,9.93432 1.9847,19.39605 5.5304,28.05094 -29.0965,18.24516 -48.02,47.77754 -48.02,81.12743 0,10.98848 2.0814,21.54966 5.8756,31.44603 -35.4569,26.95637 -57.8918,66.60917 -57.8918,110.85326 0,71.85549 59.1052,131.63527 137.2317,144.47863 l 0,119.90239 6.7878,0 49.2639,0 6.789,0 0,-119.90973 c 78.1229,-12.84092 137.2281,-72.61948 137.2281,-144.47129 z" />
    <path
       inkscape:connector-curvature="0"
       style="fill:#737c5e;fill-opacity:1"
       id="path4360"
       d="m 541.91013,442.85526 c 0,-44.24409 -22.43854,-83.89689 -57.89185,-110.85326 3.79424,-9.89637 5.87685,-20.45755 5.87685,-31.44603 0,-33.34866 -18.92467,-62.88105 -48.02119,-81.12743 3.54202,-8.65366 5.53036,-18.11539 5.53036,-28.05093 0,-40.94939 -33.19317,-74.14133 -74.14623,-74.14133 -40.94938,0 -74.14257,33.19194 -74.14257,74.14133 0,9.93432 1.98468,19.39605 5.53037,28.05093 -29.09653,18.24516 -48.01998,47.77754 -48.01998,81.12743 0,10.98848 2.08139,21.54966 5.87563,31.44603 -35.45698,26.95637 -57.89185,66.60917 -57.89185,110.85326 0,71.85549 59.10517,131.63527 137.23175,144.47863 l 0,119.90239 6.78776,0 49.2639,0 6.78898,0 0,-119.90973 c 78.1229,-12.84092 137.22807,-72.61948 137.22807,-144.47129 z" />
  </g>
</svg>
