<?xml version="1.0" encoding="UTF-8" standalone="no"?>
<!-- Created with Inkscape (http://www.inkscape.org/) -->

<svg
   xmlns:dc="http://purl.org/dc/elements/1.1/"
   xmlns:cc="http://creativecommons.org/ns#"
   xmlns:rdf="http://www.w3.org/1999/02/22-rdf-syntax-ns#"
   xmlns:svg="http://www.w3.org/2000/svg"
   xmlns="http://www.w3.org/2000/svg"
   xmlns:sodipodi="http://sodipodi.sourceforge.net/DTD/sodipodi-0.dtd"
   xmlns:inkscape="http://www.inkscape.org/namespaces/inkscape"
   width="197.83778mm"
   height="260.49112mm"
   viewBox="0 0 701.00002 923.00003"
   id="svg4133"
   version="1.1"
   inkscape:version="0.91 r13725"
   sodipodi:docname="alder.svg">
  <defs
     id="defs4135" />
  <sodipodi:namedview
     id="base"
     pagecolor="#ffffff"
     bordercolor="#666666"
     borderopacity="1.0"
     inkscape:pageopacity="0.0"
     inkscape:pageshadow="2"
     inkscape:zoom="0.35"
     inkscape:cx="-104.50004"
     inkscape:cy="396.78569"
     inkscape:document-units="px"
     inkscape:current-layer="layer1"
     showgrid="false"
     fit-margin-top="0"
     fit-margin-left="0"
     fit-margin-right="0"
     fit-margin-bottom="0"
     inkscape:window-width="2560"
     inkscape:window-height="1376"
     inkscape:window-x="0"
     inkscape:window-y="27"
     inkscape:window-maximized="1" />
  <metadata
     id="metadata4138">
    <rdf:RDF>
      <cc:Work
         rdf:about="">
        <dc:format>image/svg+xml</dc:format>
        <dc:type
           rdf:resource="http://purl.org/dc/dcmitype/StillImage" />
        <dc:title></dc:title>
      </cc:Work>
    </rdf:RDF>
  </metadata>
  <g
     inkscape:label="Layer 1"
     inkscape:groupmode="layer"
     id="layer1"
     transform="translate(-22.357178,-6.1478882)">
    <path
       style="fill:#ffffff;fill-opacity:1;stroke:#000000;stroke-opacity:0.66298343"
       d="m 722.85718,356.64789 c 0,193.29966 -290.98605,572 -350,572 -61.87109,0 -350.000002,-378.70034 -350.000002,-572 C 22.857177,163.34823 179.55752,6.6478871 372.85718,6.6478882 c 193.29966,0 350,156.7003418 350,350.0000018 z"
       id="path4681"
       inkscape:connector-curvature="0"
       sodipodi:nodetypes="sssss" />
    <path
       inkscape:connector-curvature="0"
       style="fill:#000000;fill-opacity:0.27058824"
       id="path4360-6"
       d="m 561.35604,469.49261 c 0,-44.26059 -22.4469,-83.92818 -57.9135,-110.8946 3.7957,-9.90006 5.8791,-20.46518 5.8791,-31.45775 0,-33.3611 -18.9318,-62.9045 -48.0391,-81.1577 3.5433,-8.65688 5.5324,-18.12213 5.5324,-28.06139 0,-40.96465 -33.2056,-74.16897 -74.1739,-74.16897 -40.9646,0 -74.1702,33.20432 -74.1702,74.16897 0,9.93803 1.9854,19.40328 5.5324,28.06139 -29.1073,18.25198 -48.0378,47.79537 -48.0378,81.1577 0,10.99257 2.0821,21.55769 5.8778,31.45775 -35.4702,26.96642 -57.9135,66.63401 -57.9135,110.8946 0,71.88227 59.1272,131.68435 137.283,144.53249 l 0,119.9471 6.7902,0 49.2823,0 6.7915,0 0,-119.95445 c 78.1521,-12.84569 137.2793,-72.64654 137.2793,-144.52514 z" />
    <path
       inkscape:connector-curvature="0"
       style="fill:#437312;fill-opacity:1"
       id="path4360"
       d="m 539.17875,448.47099 c 0,-44.26059 -22.4469,-83.92818 -57.91343,-110.8946 3.79565,-9.90006 5.87903,-20.46518 5.87903,-31.45775 0,-33.3611 -18.93172,-62.9045 -48.03909,-81.1577 3.54335,-8.65688 5.53242,-18.12213 5.53242,-28.06139 0,-40.96465 -33.20554,-74.16897 -74.17387,-74.16897 -40.96466,0 -74.1702,33.20432 -74.1702,74.16897 0,9.93803 1.9854,19.40328 5.53242,28.06139 -29.10737,18.25198 -48.03787,47.79537 -48.03787,81.1577 0,10.99257 2.08216,21.55769 5.87781,31.45775 -35.4702,26.96642 -57.91343,66.63401 -57.91343,110.8946 0,71.88227 59.1272,131.68435 137.28291,144.53249 l 0,119.9471 6.79029,0 49.28226,0 6.79152,0 0,-119.95445 c 78.15203,-12.84569 137.27923,-72.64654 137.27923,-144.52514 z" />
  </g>
</svg>
