<?xml version="1.0" encoding="UTF-8" standalone="no"?>
<!-- Created with Inkscape (http://www.inkscape.org/) -->

<svg
   xmlns:dc="http://purl.org/dc/elements/1.1/"
   xmlns:cc="http://creativecommons.org/ns#"
   xmlns:rdf="http://www.w3.org/1999/02/22-rdf-syntax-ns#"
   xmlns:svg="http://www.w3.org/2000/svg"
   xmlns="http://www.w3.org/2000/svg"
   xmlns:sodipodi="http://sodipodi.sourceforge.net/DTD/sodipodi-0.dtd"
   xmlns:inkscape="http://www.inkscape.org/namespaces/inkscape"
   width="197.83778mm"
   height="260.49112mm"
   viewBox="0 0 701.00002 923.00003"
   id="svg4133"
   version="1.1"
   inkscape:version="0.91 r13725"
   sodipodi:docname="hornbeam.svg">
  <defs
     id="defs4135">
    <inkscape:perspective
       sodipodi:type="inkscape:persp3d"
       inkscape:vp_x="0 : 461.50002 : 1"
       inkscape:vp_y="0 : 1000 : 0"
       inkscape:vp_z="701.00002 : 461.50002 : 1"
       inkscape:persp3d-origin="350.50001 : 307.66668 : 1"
       id="perspective4168" />
  </defs>
  <sodipodi:namedview
     id="base"
     pagecolor="#ffffff"
     bordercolor="#666666"
     borderopacity="1.0"
     inkscape:pageopacity="0.0"
     inkscape:pageshadow="2"
     inkscape:zoom="0.98994949"
     inkscape:cx="342.52007"
     inkscape:cy="596.72438"
     inkscape:document-units="px"
     inkscape:current-layer="layer1"
     showgrid="false"
     fit-margin-top="0"
     fit-margin-left="0"
     fit-margin-right="0"
     fit-margin-bottom="0"
     inkscape:window-width="1280"
     inkscape:window-height="1376"
     inkscape:window-x="0"
     inkscape:window-y="27"
     inkscape:window-maximized="0" />
  <metadata
     id="metadata4138">
    <rdf:RDF>
      <cc:Work
         rdf:about="">
        <dc:format>image/svg+xml</dc:format>
        <dc:type
           rdf:resource="http://purl.org/dc/dcmitype/StillImage" />
        <dc:title></dc:title>
      </cc:Work>
    </rdf:RDF>
  </metadata>
  <g
     inkscape:label="Layer 1"
     inkscape:groupmode="layer"
     id="layer1"
     transform="translate(-22.357178,-6.1478882)">
    <path
       style="fill:#ffffff;fill-opacity:1;stroke:#000000;stroke-opacity:0.66298343"
       d="m 722.85718,356.64789 c 0,193.29966 -290.98605,572 -350,572 -61.87109,0 -350.000002,-378.70034 -350.000002,-572 C 22.857177,163.34823 179.55752,6.6478871 372.85718,6.6478882 c 193.29966,0 350,156.7003418 350,350.0000018 z"
       id="path4681"
       inkscape:connector-curvature="0"
       sodipodi:nodetypes="sssss" />
    <g
       id="g4204"
       transform="translate(20,20)"
       style="fill:#000000;fill-opacity:0.27058825">
      <path
         style="fill:#000000;fill-opacity:0.27058824"
         d="M 370 88.349609 C 292.68014 88.349609 230 423.92565 230 509.08594 C 230 582.59376 276.70327 644.08094 339.20898 659.5332 L 339.20898 757.63867 L 401.83789 757.63867 L 401.83789 659.27539 C 463.81838 643.39938 510 582.18352 510 509.08594 C 510 423.92565 447.31986 88.349609 370 88.349609 z "
         transform="translate(2.357178,-13.852112)"
         id="rect4206" />
    </g>
    <g
       id="g4189"
       style="fill:#87af3e;fill-opacity:1">
      <rect
         y="634.75421"
         x="341.5654"
         height="109.03329"
         width="62.629456"
         id="rect4184"
         style="fill:#87af3e;fill-opacity:1" />
      <path
         sodipodi:nodetypes="sssss"
         inkscape:connector-curvature="0"
         id="path4186"
         d="m 512.35718,495.23384 c 0,85.16029 -62.68014,154.19636 -140,154.19636 -77.31986,0 -140,-69.03607 -140,-154.19636 0,-85.16029 62.68014,-420.735775 140,-420.735775 77.31986,0 140,335.575485 140,420.735775 z"
         style="fill:#87af3e;fill-opacity:1" />
    </g>
  </g>
</svg>
