<?xml version="1.0" encoding="UTF-8" standalone="no"?>
<!-- Created with Inkscape (http://www.inkscape.org/) -->

<svg
   xmlns:osb="http://www.openswatchbook.org/uri/2009/osb"
   xmlns:dc="http://purl.org/dc/elements/1.1/"
   xmlns:cc="http://creativecommons.org/ns#"
   xmlns:rdf="http://www.w3.org/1999/02/22-rdf-syntax-ns#"
   xmlns:svg="http://www.w3.org/2000/svg"
   xmlns="http://www.w3.org/2000/svg"
   xmlns:sodipodi="http://sodipodi.sourceforge.net/DTD/sodipodi-0.dtd"
   xmlns:inkscape="http://www.inkscape.org/namespaces/inkscape"
   width="260.5mm"
   height="260.49112mm"
   viewBox="0 0 923.03149 923.00003"
   id="svg4133"
   version="1.1"
   inkscape:version="0.91 r13725"
   sodipodi:docname="icon.svg">
  <defs
     id="defs4135">
    <linearGradient
       id="linearGradient5629"
       osb:paint="solid">
      <stop
         style="stop-color:#000000;stop-opacity:1;"
         offset="0"
         id="stop5631" />
    </linearGradient>
  </defs>
  <sodipodi:namedview
     id="base"
     pagecolor="#ffffff"
     bordercolor="#666666"
     borderopacity="1.0"
     inkscape:pageopacity="0.0"
     inkscape:pageshadow="2"
     inkscape:zoom="0.7"
     inkscape:cx="443.70902"
     inkscape:cy="347.66861"
     inkscape:document-units="px"
     inkscape:current-layer="layer1"
     showgrid="false"
     fit-margin-top="0"
     fit-margin-left="0"
     fit-margin-right="0"
     fit-margin-bottom="0"
     inkscape:window-width="1280"
     inkscape:window-height="1376"
     inkscape:window-x="0"
     inkscape:window-y="27"
     inkscape:window-maximized="0" />
  <metadata
     id="metadata4138">
    <rdf:RDF>
      <cc:Work
         rdf:about="">
        <dc:format>image/svg+xml</dc:format>
        <dc:type
           rdf:resource="http://purl.org/dc/dcmitype/StillImage" />
        <dc:title></dc:title>
      </cc:Work>
    </rdf:RDF>
  </metadata>
  <g
     inkscape:label="Layer 1"
     inkscape:groupmode="layer"
     id="layer1"
     transform="translate(-22.357178,-6.1478882)">
    <circle
       style="fill:#ffffff;fill-opacity:1;stroke:#000000;stroke-width:1.0271281;stroke-opacity:0.6627451"
       id="path4144"
       cx="483.85519"
       cy="467.64987"
       r="460.98447" />
    <g
       id="g4146"
       style="fill:#000000;fill-opacity:0.27058825;stroke:none;stroke-opacity:1"
       transform="matrix(1.1708744,0,0,1.1708744,52.352813,-54.85102)">
      <g
         id="g4148"
         style="fill:#000000;fill-opacity:0.27058825;stroke:none;stroke-opacity:1">
        <g
           id="g4150"
           style="fill:#000000;fill-opacity:0.27058825">
          <path
             id="path4152"
             style="fill:#000000;fill-opacity:0.27058825;stroke:none;stroke-opacity:1"
             d="m 428.28096,439.09176 c 0,57.18392 -21.03013,103.54064 -46.9721,103.54063 -25.94197,0 -46.97209,-46.35672 -46.97209,-103.54063 0,-57.18391 21.03012,-103.54062 46.97209,-103.54062 25.94197,-10e-6 46.9721,46.35671 46.9721,103.54062 z m 66.71069,-174.25131 c 0,60.81021 -48.84416,110.10663 -109.09648,110.10663 -60.25232,0 -109.09648,-49.29642 -109.09648,-110.10663 0,-60.81021 48.84416,-110.10663 109.09648,-110.10663 60.25232,0 109.09648,49.29642 109.09648,110.10663 z m 135.64969,91.92389 c 0,60.81021 -48.84416,110.10663 -109.09648,110.10663 -60.25232,0 -109.09648,-49.29642 -109.09648,-110.10663 0,-60.81021 48.84416,-110.10663 109.09648,-110.10663 60.25232,0 109.09648,49.29642 109.09648,110.10663 z m -265.99999,0 c 0,60.81021 -48.84416,110.10663 -109.09648,110.10663 -60.25232,0 -109.09648,-49.29642 -109.09648,-110.10663 0,-60.81021 48.84416,-110.10663 109.09648,-110.10663 60.25232,0 109.09648,49.29642 109.09648,110.10663 z m 41.43657,109.0965 c -1e-5,39.05486 -20.14698,73.36057 -50.52381,92.9082 -2.44753,1.575 -4.96147,3.05419 -7.53664,4.43233 -15.22855,8.14983 -32.59814,12.76609 -51.03603,12.76609 -60.25232,0 -109.09647,-49.29641 -109.09648,-110.10662 0,-60.81021 48.84416,-110.10663 109.09648,-110.10663 60.25232,0 109.09649,49.29642 109.09648,110.10663 z m 12.56843,91.89954 0,95.90973 -0.0172,1.2041 0,124.10152 -62.82598,0 0,-124.10152 0.003,-1.2041 0,-119.90239 c 58.2784,32.82993 -9.31213,-173.94937 123.17573,-178.01355 60.25232,0 109.09648,49.29642 109.09648,110.10663 -1e-5,60.81021 -48.84416,110.10662 -109.09648,110.10662 -22.21791,0 -42.88459,-6.70307 -60.12299,-18.21479"
             inkscape:connector-curvature="0"
             sodipodi:nodetypes="ssssssssssssssssssssssssssscccccccccssc" />
        </g>
      </g>
    </g>
    <g
       transform="matrix(1.1708744,0,0,1.1708744,28.352813,-78.85102)"
       style="fill:#968f53;fill-opacity:1;stroke:none;stroke-opacity:1"
       id="g5824">
      <g
         style="fill:#968f53;fill-opacity:1;stroke:none;stroke-opacity:1"
         id="g5705">
        <g
           style="fill:#968f53;fill-opacity:1"
           id="g5889">
          <path
             sodipodi:nodetypes="ssssssssssssssssssssssssssscccccccccssc"
             inkscape:connector-curvature="0"
             d="m 428.28096,439.09176 c 0,57.18392 -21.03013,103.54064 -46.9721,103.54063 -25.94197,0 -46.97209,-46.35672 -46.97209,-103.54063 0,-57.18391 21.03012,-103.54062 46.97209,-103.54062 25.94197,-10e-6 46.9721,46.35671 46.9721,103.54062 z m 66.71069,-174.25131 c 0,60.81021 -48.84416,110.10663 -109.09648,110.10663 -60.25232,0 -109.09648,-49.29642 -109.09648,-110.10663 0,-60.81021 48.84416,-110.10663 109.09648,-110.10663 60.25232,0 109.09648,49.29642 109.09648,110.10663 z m 135.64969,91.92389 c 0,60.81021 -48.84416,110.10663 -109.09648,110.10663 -60.25232,0 -109.09648,-49.29642 -109.09648,-110.10663 0,-60.81021 48.84416,-110.10663 109.09648,-110.10663 60.25232,0 109.09648,49.29642 109.09648,110.10663 z m -265.99999,0 c 0,60.81021 -48.84416,110.10663 -109.09648,110.10663 -60.25232,0 -109.09648,-49.29642 -109.09648,-110.10663 0,-60.81021 48.84416,-110.10663 109.09648,-110.10663 60.25232,0 109.09648,49.29642 109.09648,110.10663 z m 41.43657,109.0965 c -1e-5,39.05486 -20.14698,73.36057 -50.52381,92.9082 -2.44753,1.575 -4.96147,3.05419 -7.53664,4.43233 -15.22855,8.14983 -32.59814,12.76609 -51.03603,12.76609 -60.25232,0 -109.09647,-49.29641 -109.09648,-110.10662 0,-60.81021 48.84416,-110.10663 109.09648,-110.10663 60.25232,0 109.09649,49.29642 109.09648,110.10663 z m 12.56843,91.89954 0,95.90973 -0.0172,1.2041 0,124.10152 -62.82598,0 0,-124.10152 0.003,-1.2041 0,-119.90239 c 58.2784,32.82993 -9.31213,-173.94937 123.17573,-178.01355 60.25232,0 109.09648,49.29642 109.09648,110.10663 -1e-5,60.81021 -48.84416,110.10662 -109.09648,110.10662 -22.21791,0 -42.88459,-6.70307 -60.12299,-18.21479"
             style="fill:#968f53;fill-opacity:1;stroke:none;stroke-opacity:1"
             id="path5703" />
        </g>
      </g>
    </g>
  </g>
</svg>
