<?xml version="1.0" encoding="UTF-8" standalone="no"?>
<!-- Created with Inkscape (http://www.inkscape.org/) -->

<svg
   xmlns:dc="http://purl.org/dc/elements/1.1/"
   xmlns:cc="http://creativecommons.org/ns#"
   xmlns:rdf="http://www.w3.org/1999/02/22-rdf-syntax-ns#"
   xmlns:svg="http://www.w3.org/2000/svg"
   xmlns="http://www.w3.org/2000/svg"
   xmlns:sodipodi="http://sodipodi.sourceforge.net/DTD/sodipodi-0.dtd"
   xmlns:inkscape="http://www.inkscape.org/namespaces/inkscape"
   width="197.83778mm"
   height="260.49112mm"
   viewBox="0 0 701.00002 923.00003"
   id="svg4133"
   version="1.1"
   inkscape:version="0.91 r13725"
   sodipodi:docname="larch.svg">
  <defs
     id="defs4135" />
  <sodipodi:namedview
     id="base"
     pagecolor="#ffffff"
     bordercolor="#666666"
     borderopacity="1.0"
     inkscape:pageopacity="0.0"
     inkscape:pageshadow="2"
     inkscape:zoom="0.35"
     inkscape:cx="-553.07147"
     inkscape:cy="391.0714"
     inkscape:document-units="px"
     inkscape:current-layer="layer1"
     showgrid="false"
     fit-margin-top="0"
     fit-margin-left="0"
     fit-margin-right="0"
     fit-margin-bottom="0"
     inkscape:window-width="1280"
     inkscape:window-height="1376"
     inkscape:window-x="0"
     inkscape:window-y="27"
     inkscape:window-maximized="0" />
  <metadata
     id="metadata4138">
    <rdf:RDF>
      <cc:Work
         rdf:about="">
        <dc:format>image/svg+xml</dc:format>
        <dc:type
           rdf:resource="http://purl.org/dc/dcmitype/StillImage" />
        <dc:title></dc:title>
      </cc:Work>
    </rdf:RDF>
  </metadata>
  <g
     inkscape:label="Layer 1"
     inkscape:groupmode="layer"
     id="layer1"
     transform="translate(-22.357178,-6.1478882)">
    <path
       style="fill:#ffffff;fill-opacity:1;stroke:#000000;stroke-opacity:0.66298343"
       d="m 722.85718,356.64789 c 0,193.29966 -290.98605,572 -350,572 -61.87109,0 -350.000002,-378.70034 -350.000002,-572 C 22.857177,163.34823 179.55752,6.6478871 372.85718,6.6478882 c 193.29966,0 350,156.7003418 350,350.0000018 z"
       id="path4681"
       inkscape:connector-curvature="0"
       sodipodi:nodetypes="sssss" />
    <path
       sodipodi:nodetypes="cccccccccccccccccc"
       inkscape:connector-curvature="0"
       id="polygon3390-3"
       d="m 437.33038,279.93946 36.1487,-13.37313 -82.6225,-129.7337 -82.6213,129.7337 36.1497,13.37313 -78.0165,115.07232 57.0865,20.05967 -103.7297,141.77956 139.6855,37.89049 0,132.57885 0.5483,0 61.7928,0 0.5516,0 0,-132.57885 139.6855,-37.89049 -103.7296,-141.77956 57.0864,-20.05967 z"
       style="fill:#000000;fill-opacity:0.27071826" />
    <path
       sodipodi:nodetypes="cccccccccccccccccc"
       inkscape:connector-curvature="0"
       id="polygon3390"
       d="m 416.18749,261.33888 36.14864,-13.37313 -82.62245,-129.7337 -82.62135,129.7337 36.14977,13.37313 -78.01654,115.07232 57.08649,20.05967 -103.72969,141.77956 139.68555,37.89049 0,132.57885 0.54829,0 61.79272,0 0.55164,0 0,-132.57885 L 540.84611,538.25043 437.11642,396.47087 494.2029,376.4112 Z"
       style="fill:#aa7939;fill-opacity:1" />
  </g>
</svg>
