<?xml version="1.0" encoding="UTF-8" standalone="no"?>
<!-- Created with Inkscape (http://www.inkscape.org/) -->

<svg
   xmlns:osb="http://www.openswatchbook.org/uri/2009/osb"
   xmlns:dc="http://purl.org/dc/elements/1.1/"
   xmlns:cc="http://creativecommons.org/ns#"
   xmlns:rdf="http://www.w3.org/1999/02/22-rdf-syntax-ns#"
   xmlns:svg="http://www.w3.org/2000/svg"
   xmlns="http://www.w3.org/2000/svg"
   xmlns:sodipodi="http://sodipodi.sourceforge.net/DTD/sodipodi-0.dtd"
   xmlns:inkscape="http://www.inkscape.org/namespaces/inkscape"
   width="197.83778mm"
   height="260.49112mm"
   viewBox="0 0 701.00002 923.00003"
   id="svg4133"
   version="1.1"
   inkscape:version="0.91 r13725"
   sodipodi:docname="willow.svg">
  <defs
     id="defs4135">
    <linearGradient
       id="linearGradient5629"
       osb:paint="solid">
      <stop
         style="stop-color:#000000;stop-opacity:1;"
         offset="0"
         id="stop5631" />
    </linearGradient>
  </defs>
  <sodipodi:namedview
     id="base"
     pagecolor="#ffffff"
     bordercolor="#666666"
     borderopacity="1.0"
     inkscape:pageopacity="0.0"
     inkscape:pageshadow="2"
     inkscape:zoom="0.98994949"
     inkscape:cx="339.55292"
     inkscape:cy="446.08934"
     inkscape:document-units="px"
     inkscape:current-layer="g5730"
     showgrid="false"
     fit-margin-top="0"
     fit-margin-left="0"
     fit-margin-right="0"
     fit-margin-bottom="0"
     inkscape:window-width="1280"
     inkscape:window-height="1376"
     inkscape:window-x="0"
     inkscape:window-y="27"
     inkscape:window-maximized="0" />
  <metadata
     id="metadata4138">
    <rdf:RDF>
      <cc:Work
         rdf:about="">
        <dc:format>image/svg+xml</dc:format>
        <dc:type
           rdf:resource="http://purl.org/dc/dcmitype/StillImage" />
        <dc:title />
      </cc:Work>
    </rdf:RDF>
  </metadata>
  <g
     inkscape:label="Layer 1"
     inkscape:groupmode="layer"
     id="layer1"
     transform="translate(-22.357178,-6.1478882)">
    <path
       style="fill:#ffffff;fill-opacity:1;stroke:#000000;stroke-opacity:0.66298343"
       d="m 722.85718,356.64789 c 0,193.29966 -290.98605,572 -350,572 -61.87109,0 -350.000002,-378.70034 -350.000002,-572 C 22.857177,163.34823 179.55752,6.6478871 372.85718,6.6478882 c 193.29966,0 350,156.7003418 350,350.0000018 z"
       id="path4681"
       inkscape:connector-curvature="0"
       sodipodi:nodetypes="sssss" />
    <g
       id="g5730"
       transform="translate(2.519944,-40.601165)"
       style="stroke:none;stroke-opacity:1;fill:#9bb887;fill-opacity:1">
      <g
         id="g5824"
         style="stroke:none;stroke-opacity:1;fill:#9bb887;fill-opacity:1"
         transform="translate(-18.571428,31.428567)">
        <g
           id="g5705"
           style="stroke:none;stroke-opacity:1;fill:#9bb887;fill-opacity:1">
          <g
             id="g5889"
             style="fill:#9bb887;fill-opacity:1">
            <path
               id="path5703"
               style="fill:#9bb887;fill-opacity:1;stroke:none;stroke-opacity:1"
               d="m 428.28096,439.09176 c 0,57.18392 -21.03013,103.54064 -46.9721,103.54063 -25.94197,0 -46.97209,-46.35672 -46.97209,-103.54063 0,-57.18391 21.03012,-103.54062 46.97209,-103.54062 25.94197,-10e-6 46.9721,46.35671 46.9721,103.54062 z m 66.71069,-174.25131 c 0,60.81021 -48.84416,110.10663 -109.09648,110.10663 -60.25232,0 -109.09648,-49.29642 -109.09648,-110.10663 0,-60.81021 48.84416,-110.10663 109.09648,-110.10663 60.25232,0 109.09648,49.29642 109.09648,110.10663 z m 135.64969,91.92389 c 0,60.81021 -48.84416,110.10663 -109.09648,110.10663 -60.25232,0 -109.09648,-49.29642 -109.09648,-110.10663 0,-60.81021 48.84416,-110.10663 109.09648,-110.10663 60.25232,0 109.09648,49.29642 109.09648,110.10663 z m -265.99999,0 c 0,60.81021 -48.84416,110.10663 -109.09648,110.10663 -15.06308,0 -29.41315,-3.08103 -42.46527,-8.65273 -13.05212,-5.57169 -10.8063,-1.63407 -20.67759,-11.59676 -9.87129,-9.96269 -34.90418,2.31432 -45.95171,20.85847 0,0 -0.002,-95.51306 -0.002,-110.71561 0,-60.81021 48.84416,-110.10663 109.09648,-110.10663 60.25232,0 109.09648,49.29642 109.09648,110.10663 z m 41.43657,109.0965 c -1e-5,39.05486 -19.78984,137.86057 -50.16667,157.4082 -29.61613,-50.73035 -123.63571,-46.97598 -168.56751,-2.1715 0,0 0.54123,-124.8316 0.54122,-155.2367 -1e-5,-60.81021 48.84416,-110.10663 109.09648,-110.10663 60.25232,0 109.09649,49.29642 109.09648,110.10663 z m 12.56843,91.89954 0,95.90973 -6.78898,0 -49.2639,0 -6.78776,0 0,-119.90239 c 58.2784,32.82993 -9.31213,-173.94937 123.17573,-178.01355 60.25232,0 109.09648,49.29642 109.09648,110.10663 -10e-6,60.81021 -49.2013,72.96376 -109.45362,72.96376 -22.21791,0 -42.52745,30.43979 -59.76585,18.92807"
               inkscape:connector-curvature="0"
               sodipodi:nodetypes="ssssssssssssssssssscssssccssscccccccsscc" />
            <path
               sodipodi:nodetypes="ssssssssssssssssssscssssccssscccccccsscc"
               inkscape:connector-curvature="0"
               d="m 428.28096,439.09176 c 0,57.18392 -21.03013,103.54064 -46.9721,103.54063 -25.94197,0 -46.97209,-46.35672 -46.97209,-103.54063 0,-57.18391 21.03012,-103.54062 46.97209,-103.54062 25.94197,-10e-6 46.9721,46.35671 46.9721,103.54062 z m 66.71069,-174.25131 c 0,60.81021 -48.84416,110.10663 -109.09648,110.10663 -60.25232,0 -109.09648,-49.29642 -109.09648,-110.10663 0,-60.81021 48.84416,-110.10663 109.09648,-110.10663 60.25232,0 109.09648,49.29642 109.09648,110.10663 z m 135.64969,91.92389 c 0,60.81021 -0.1173,136.01345 -0.1173,136.01345 -33.31778,-58.188 -68.57308,2.57851 -68.57308,-58.2317 0,-60.81021 -100.65842,-187.88838 -40.4061,-187.88838 60.25232,0 109.09648,49.29642 109.09648,110.10663 z m -265.99999,0 c 0,60.81021 -48.84416,110.10663 -109.09648,110.10663 -15.06308,0 -29.41315,-3.08103 -42.46527,-8.65273 -13.05212,-5.57169 -10.8063,-1.63407 -20.67759,-11.59676 -9.87129,-9.96269 -34.90418,2.31432 -45.95171,20.85847 0,0 -0.002,-95.51306 -0.002,-110.71561 0,-60.81021 48.84416,-110.10663 109.09648,-110.10663 60.25232,0 109.09648,49.29642 109.09648,110.10663 z m 41.43657,109.0965 c -1e-5,39.05486 -19.78984,125.86057 -50.16667,145.4082 -27.59582,-46.68974 -100.79344,-135.3382 -137.13894,-90.02864 0,0 -30.88734,-24.97446 -30.88735,-55.37956 -1e-5,-60.81021 48.84416,-110.10663 109.09648,-110.10663 60.25232,0 109.09649,49.29642 109.09648,110.10663 z m 28.56843,91.89954 0,95.90973 -6.78898,0 -79.2639,0 -6.78776,0 0,-119.90239 c 58.2784,32.82993 4.68787,-173.94937 137.17573,-178.01355 60.25232,0 123.23863,49.29642 123.23862,110.10663 0,30.40511 0.4851,105.12183 0.4851,105.12183 -80.61611,-45.60589 -142.94748,-37.93457 -182.83656,2.30809"
               style="fill:#9bb887;fill-opacity:1;stroke:none;stroke-opacity:1"
               id="path4146" />
          </g>
        </g>
      </g>
    </g>
  </g>
</svg>
